<svg xmlns="http://www.w3.org/2000/svg" width="900" height="420">
<rect width="100%" height="100%" fill="white"/>
<text x="450.0" y="28" text-anchor="middle" font-size="20" font-family="Arial">Actual vs Fitted (demand_mix)</text>
<line x1="70" y1="370" x2="870" y2="370" stroke="#333"/>
<line x1="70" y1="50" x2="70" y2="370" stroke="#333"/>
<text x="22" y="210.0" text-anchor="middle" font-size="14" transform="rotate(-90,22,210.0)" font-family="Arial">Percent</text>
<line x1="70.0" y1="370" x2="70.0" y2="376" stroke="#333"/>
<text x="70.0" y="390" text-anchor="middle" font-size="11" font-family="Arial">2009</text>
<line x1="127.14285714285714" y1="370" x2="127.14285714285714" y2="376" stroke="#333"/>
<text x="127.14285714285714" y="390" text-anchor="middle" font-size="11" font-family="Arial">2010</text>
<line x1="184.28571428571428" y1="370" x2="184.28571428571428" y2="376" stroke="#333"/>
<text x="184.28571428571428" y="390" text-anchor="middle" font-size="11" font-family="Arial">2011</text>
<line x1="241.42857142857142" y1="370" x2="241.42857142857142" y2="376" stroke="#333"/>
<text x="241.42857142857142" y="390" text-anchor="middle" font-size="11" font-family="Arial">2012</text>
<line x1="298.57142857142856" y1="370" x2="298.57142857142856" y2="376" stroke="#333"/>
<text x="298.57142857142856" y="390" text-anchor="middle" font-size="11" font-family="Arial">2013</text>
<line x1="355.7142857142857" y1="370" x2="355.7142857142857" y2="376" stroke="#333"/>
<text x="355.7142857142857" y="390" text-anchor="middle" font-size="11" font-family="Arial">2014</text>
<line x1="412.85714285714283" y1="370" x2="412.85714285714283" y2="376" stroke="#333"/>
<text x="412.85714285714283" y="390" text-anchor="middle" font-size="11" font-family="Arial">2015</text>
<line x1="470.0" y1="370" x2="470.0" y2="376" stroke="#333"/>
<text x="470.0" y="390" text-anchor="middle" font-size="11" font-family="Arial">2016</text>
<line x1="527.1428571428571" y1="370" x2="527.1428571428571" y2="376" stroke="#333"/>
<text x="527.1428571428571" y="390" text-anchor="middle" font-size="11" font-family="Arial">2017</text>
<line x1="584.2857142857143" y1="370" x2="584.2857142857143" y2="376" stroke="#333"/>
<text x="584.2857142857143" y="390" text-anchor="middle" font-size="11" font-family="Arial">2018</text>
<line x1="641.4285714285714" y1="370" x2="641.4285714285714" y2="376" stroke="#333"/>
<text x="641.4285714285714" y="390" text-anchor="middle" font-size="11" font-family="Arial">2019</text>
<line x1="698.5714285714286" y1="370" x2="698.5714285714286" y2="376" stroke="#333"/>
<text x="698.5714285714286" y="390" text-anchor="middle" font-size="11" font-family="Arial">2020</text>
<line x1="755.7142857142857" y1="370" x2="755.7142857142857" y2="376" stroke="#333"/>
<text x="755.7142857142857" y="390" text-anchor="middle" font-size="11" font-family="Arial">2021</text>
<line x1="812.8571428571429" y1="370" x2="812.8571428571429" y2="376" stroke="#333"/>
<text x="812.8571428571429" y="390" text-anchor="middle" font-size="11" font-family="Arial">2022</text>
<line x1="870.0" y1="370" x2="870.0" y2="376" stroke="#333"/>
<text x="870.0" y="390" text-anchor="middle" font-size="11" font-family="Arial">2023</text>
<line x1="65" y1="370.0" x2="70" y2="370.0" stroke="#333"/>
<text x="60" y="374.0" text-anchor="end" font-size="11" font-family="Arial">3.5</text>
<line x1="70" y1="370.0" x2="870" y2="370.0" stroke="#e6e6e6"/>
<line x1="65" y1="306.0" x2="70" y2="306.0" stroke="#333"/>
<text x="60" y="310.0" text-anchor="end" font-size="11" font-family="Arial">5.5</text>
<line x1="70" y1="306.0" x2="870" y2="306.0" stroke="#e6e6e6"/>
<line x1="65" y1="242.0" x2="70" y2="242.0" stroke="#333"/>
<text x="60" y="246.0" text-anchor="end" font-size="11" font-family="Arial">7.5</text>
<line x1="70" y1="242.0" x2="870" y2="242.0" stroke="#e6e6e6"/>
<line x1="65" y1="177.99999999999997" x2="70" y2="177.99999999999997" stroke="#333"/>
<text x="60" y="181.99999999999997" text-anchor="end" font-size="11" font-family="Arial">9.5</text>
<line x1="70" y1="177.99999999999997" x2="870" y2="177.99999999999997" stroke="#e6e6e6"/>
<line x1="65" y1="114.0" x2="70" y2="114.0" stroke="#333"/>
<text x="60" y="118.0" text-anchor="end" font-size="11" font-family="Arial">11.5</text>
<line x1="70" y1="114.0" x2="870" y2="114.0" stroke="#e6e6e6"/>
<line x1="65" y1="50.0" x2="70" y2="50.0" stroke="#333"/>
<text x="60" y="54.0" text-anchor="end" font-size="11" font-family="Arial">13.5</text>
<line x1="70" y1="50.0" x2="870" y2="50.0" stroke="#e6e6e6"/>
<polyline fill="none" stroke="#1f4e79" stroke-width="2.5" points="70.0,269.55488316333134 127.14285714285714,309.0958364451886 184.28571428571428,263.7946040182386 241.42857142857142,290.63649708622796 298.57142857142856,304.4419560211076 355.7142857142857,355.38382045987373 412.85714285714283,357.133508073038 470.0,370.0 527.1428571428571,341.08702957354944 584.2857142857143,244.30971037628498 641.4285714285714,94.4614462505424 698.5714285714286,107.11942364446156 755.7142857142857,126.68256830779384 812.8571428571429,50.0 870.0,110.34670134828849"/>
<circle cx="70.0" cy="269.55488316333134" r="3.5" fill="#1f4e79"/>
<circle cx="127.14285714285714" cy="309.0958364451886" r="3.5" fill="#1f4e79"/>
<circle cx="184.28571428571428" cy="263.7946040182386" r="3.5" fill="#1f4e79"/>
<circle cx="241.42857142857142" cy="290.63649708622796" r="3.5" fill="#1f4e79"/>
<circle cx="298.57142857142856" cy="304.4419560211076" r="3.5" fill="#1f4e79"/>
<circle cx="355.7142857142857" cy="355.38382045987373" r="3.5" fill="#1f4e79"/>
<circle cx="412.85714285714283" cy="357.133508073038" r="3.5" fill="#1f4e79"/>
<circle cx="470.0" cy="370.0" r="3.5" fill="#1f4e79"/>
<circle cx="527.1428571428571" cy="341.08702957354944" r="3.5" fill="#1f4e79"/>
<circle cx="584.2857142857143" cy="244.30971037628498" r="3.5" fill="#1f4e79"/>
<circle cx="641.4285714285714" cy="94.4614462505424" r="3.5" fill="#1f4e79"/>
<circle cx="698.5714285714286" cy="107.11942364446156" r="3.5" fill="#1f4e79"/>
<circle cx="755.7142857142857" cy="126.68256830779384" r="3.5" fill="#1f4e79"/>
<circle cx="812.8571428571429" cy="50.0" r="3.5" fill="#1f4e79"/>
<circle cx="870.0" cy="110.34670134828849" r="3.5" fill="#1f4e79"/>
<line x1="700" y1="60" x2="722" y2="60" stroke="#1f4e79" stroke-width="2.5"/>
<text x="730" y="64" font-size="12" font-family="Arial">Actual</text>
<polyline fill="none" stroke="#b22222" stroke-width="2.5" points="70.0,316.7059915017204 127.14285714285714,227.89717493069216 184.28571428571428,282.5552410239881 241.42857142857142,243.1801485262676 298.57142857142856,313.42464617411946 355.7142857142857,281.71520284225437 412.85714285714283,330.0620652801432 470.0,343.11443261224827 527.1428571428571,330.73427691958034 584.2857142857143,309.8860986928378 641.4285714285714,220.59110182729628 698.5714285714286,119.77274005143411 755.7142857142857,139.79762871769 812.8571428571429,55.94639381847168 870.0,78.66484184918613"/>
<circle cx="70.0" cy="316.7059915017204" r="3.5" fill="#b22222"/>
<circle cx="127.14285714285714" cy="227.89717493069216" r="3.5" fill="#b22222"/>
<circle cx="184.28571428571428" cy="282.5552410239881" r="3.5" fill="#b22222"/>
<circle cx="241.42857142857142" cy="243.1801485262676" r="3.5" fill="#b22222"/>
<circle cx="298.57142857142856" cy="313.42464617411946" r="3.5" fill="#b22222"/>
<circle cx="355.7142857142857" cy="281.71520284225437" r="3.5" fill="#b22222"/>
<circle cx="412.85714285714283" cy="330.0620652801432" r="3.5" fill="#b22222"/>
<circle cx="470.0" cy="343.11443261224827" r="3.5" fill="#b22222"/>
<circle cx="527.1428571428571" cy="330.73427691958034" r="3.5" fill="#b22222"/>
<circle cx="584.2857142857143" cy="309.8860986928378" r="3.5" fill="#b22222"/>
<circle cx="641.4285714285714" cy="220.59110182729628" r="3.5" fill="#b22222"/>
<circle cx="698.5714285714286" cy="119.77274005143411" r="3.5" fill="#b22222"/>
<circle cx="755.7142857142857" cy="139.79762871769" r="3.5" fill="#b22222"/>
<circle cx="812.8571428571429" cy="55.94639381847168" r="3.5" fill="#b22222"/>
<circle cx="870.0" cy="78.66484184918613" r="3.5" fill="#b22222"/>
<line x1="700" y1="82" x2="722" y2="82" stroke="#b22222" stroke-width="2.5"/>
<text x="730" y="86" font-size="12" font-family="Arial">Fitted</text>
</svg>